<svg xmlns="http://www.w3.org/2000/svg" viewBox="0 0 1200 3000" style="background: white;">
  <!-- Desktop Wireframe -->
  
  <!-- HEADER -->
  <rect x="50" y="60" width="1100" height="120" fill="none" stroke="#333" stroke-width="2"/>
  <text x="70" y="90" font-size="14" font-weight="bold">CABEÇALHO</text>
  
  <!-- Logo placeholder -->
  <rect x="70" y="100" width="80" height="60" fill="#e0e0e0" stroke="#999"/>
  <text x="110" y="135" text-anchor="middle" font-size="10">LOGO</text>
  
  <!-- Site title -->
  <text x="170" y="125" font-size="16" font-weight="bold">Centro Académico Clínico dos Açores</text>
  <text x="170" y="145" font-size="12">CACA</text>
  
  <!-- Navigation menu -->
  <g transform="translate(700, 110)">
    <rect x="0" y="0" width="430" height="40" fill="#f5f5f5" stroke="#999"/>
    <text x="10" y="25" font-size="11">Missão | Investigação | Parceiros | Oportunidades | Contactos</text>
  </g>
  
  <!-- HERO/APRESENTAÇÃO -->
  <rect x="50" y="200" width="1100" height="400" fill="none" stroke="#333" stroke-width="2"/>
  <text x="70" y="230" font-size="14" font-weight="bold">HERO / APRESENTAÇÃO</text>
  
  <rect x="70" y="250" width="530" height="320" fill="#e8f4f8" stroke="#999"/>
  <text x="335" y="280" text-anchor="middle" font-size="12" font-weight="bold">Missão e Visão do CACA</text>
  <line x1="120" y1="300" x2="550" y2="300" stroke="#999"/>
  <line x1="120" y1="320" x2="550" y2="320" stroke="#999"/>
  <line x1="120" y1="340" x2="550" y2="340" stroke="#999"/>
  <line x1="120" y1="360" x2="480" y2="360" stroke="#999"/>
  <line x1="120" y1="390" x2="550" y2="390" stroke="#999"/>
  <line x1="120" y1="410" x2="550" y2="410" stroke="#999"/>
  <line x1="120" y1="430" x2="520" y2="430" stroke="#999"/>
  
  <rect x="620" y="250" width="510" height="320" fill="#d0e8ff" stroke="#999"/>
  <text x="875" y="410" text-anchor="middle" font-size="11">Imagem representativa</text>
  <text x="875" y="430" text-anchor="middle" font-size="10">(Açores / Campus / Hospital)</text>
  
  <!-- ÁREAS DE INVESTIGAÇÃO -->
  <rect x="50" y="620" width="1100" height="480" fill="none" stroke="#333" stroke-width="2"/>
  <text x="70" y="650" font-size="14" font-weight="bold">ÁREAS DE INVESTIGAÇÃO</text>
  
  <text x="600" y="680" text-anchor="middle" font-size="13" font-weight="bold">Áreas Principais de Atuação</text>
  
  <!-- Card 1 -->
  <rect x="80" y="710" width="330" height="180" fill="#f0f8ff" stroke="#666"/>
  <text x="245" y="740" text-anchor="middle" font-size="12" font-weight="bold">e-Saúde</text>
  <line x1="110" y1="760" x2="380" y2="760" stroke="#999"/>
  <line x1="110" y1="780" x2="380" y2="780" stroke="#999"/>
  <line x1="110" y1="800" x2="380" y2="800" stroke="#999"/>
  <line x1="110" y1="820" x2="350" y2="820" stroke="#999"/>
  
  <!-- Card 2 -->
  <rect x="435" y="710" width="330" height="180" fill="#f0f8ff" stroke="#666"/>
  <text x="600" y="740" text-anchor="middle" font-size="12" font-weight="bold">IA em Saúde</text>
  <line x1="465" y1="760" x2="735" y2="760" stroke="#999"/>
  <line x1="465" y1="780" x2="735" y2="780" stroke="#999"/>
  <line x1="465" y1="800" x2="735" y2="800" stroke="#999"/>
  <line x1="465" y1="820" x2="705" y2="820" stroke="#999"/>
  
  <!-- Card 3 -->
  <rect x="790" y="710" width="330" height="180" fill="#f0f8ff" stroke="#666"/>
  <text x="955" y="740" text-anchor="middle" font-size="12" font-weight="bold">Telemedicina</text>
  <line x1="820" y1="760" x2="1090" y2="760" stroke="#999"/>
  <line x1="820" y1="780" x2="1090" y2="780" stroke="#999"/>
  <line x1="820" y1="800" x2="1090" y2="800" stroke="#999"/>
  <line x1="820" y1="820" x2="1060" y2="820" stroke="#999"/>
  
  <!-- Card 4 -->
  <rect x="257" y="910" width="330" height="180" fill="#f0f8ff" stroke="#666"/>
  <text x="422" y="940" text-anchor="middle" font-size="12" font-weight="bold">Epidemiologia Regional</text>
  <line x1="287" y1="960" x2="557" y2="960" stroke="#999"/>
  <line x1="287" y1="980" x2="557" y2="980" stroke="#999"/>
  <line x1="287" y1="1000" x2="557" y2="1000" stroke="#999"/>
  <line x1="287" y1="1020" x2="527" y2="1020" stroke="#999"/>
  
  <!-- Card 5 -->
  <rect x="612" y="910" width="330" height="180" fill="#f0f8ff" stroke="#666"/>
  <text x="777" y="940" text-anchor="middle" font-size="12" font-weight="bold">Saúde Pública</text>
  <line x1="642" y1="960" x2="912" y2="960" stroke="#999"/>
  <line x1="642" y1="980" x2="912" y2="980" stroke="#999"/>
  <line x1="642" y1="1000" x2="912" y2="1000" stroke="#999"/>
  <line x1="642" y1="1020" x2="882" y2="1020" stroke="#999"/>
  
  <!-- PARCEIROS -->
  <rect x="50" y="1120" width="1100" height="300" fill="none" stroke="#333" stroke-width="2"/>
  <text x="70" y="1150" font-size="14" font-weight="bold">PARCEIROS INSTITUCIONAIS</text>
  
  <text x="600" y="1180" text-anchor="middle" font-size="13" font-weight="bold">Instituições Parceiras</text>
  
  <!-- Partner logos grid -->
  <rect x="130" y="1210" width="150" height="80" fill="#f5f5f5" stroke="#999"/>
  <text x="205" y="1255" text-anchor="middle" font-size="10">Universidade</text>
  <text x="205" y="1270" text-anchor="middle" font-size="10">dos Açores</text>
  
  <rect x="320" y="1210" width="150" height="80" fill="#f5f5f5" stroke="#999"/>
  <text x="395" y="1255" text-anchor="middle" font-size="10">Hospital</text>
  <text x="395" y="1270" text-anchor="middle" font-size="10">Regional</text>
  
  <rect x="510" y="1210" width="150" height="80" fill="#f5f5f5" stroke="#999"/>
  <text x="585" y="1255" text-anchor="middle" font-size="10">Centro de</text>
  <text x="585" y="1270" text-anchor="middle" font-size="10">Investigação</text>
  
  <rect x="700" y="1210" width="150" height="80" fill="#f5f5f5" stroke="#999"/>
  <text x="775" y="1255" text-anchor="middle" font-size="10">Governo</text>
  <text x="775" y="1270" text-anchor="middle" font-size="10">Regional</text>
  
  <rect x="890" y="1210" width="150" height="80" fill="#f5f5f5" stroke="#999"/>
  <text x="965" y="1255" text-anchor="middle" font-size="10">Parceiro</text>
  <text x="965" y="1270" text-anchor="middle" font-size="10">Internacional</text>
  
  <text x="600" y="1330" text-anchor="middle" font-size="11" fill="#666">+ outras instituições colaboradoras</text>
  
  <!-- OPORTUNIDADES -->
  <rect x="50" y="1440" width="1100" height="320" fill="none" stroke="#333" stroke-width="2"/>
  <text x="70" y="1470" font-size="14" font-weight="bold">OPORTUNIDADES</text>
  
  <text x="600" y="1500" text-anchor="middle" font-size="13" font-weight="bold">Participe nas Nossas Iniciativas</text>
  
  <!-- Opportunity cards -->
  <rect x="100" y="1530" width="250" height="200" fill="#fff8e1" stroke="#666"/>
  <text x="225" y="1560" text-anchor="middle" font-size="12" font-weight="bold">Estágios</text>
  <line x1="120" y1="1580" x2="330" y2="1580" stroke="#999"/>
  <line x1="120" y1="1600" x2="330" y2="1600" stroke="#999"/>
  <line x1="120" y1="1620" x2="300" y2="1620" stroke="#999"/>
  
  <rect x="375" y="1530" width="250" height="200" fill="#fff8e1" stroke="#666"/>
  <text x="500" y="1560" text-anchor="middle" font-size="12" font-weight="bold">Projetos de Investigação</text>
  <line x1="395" y1="1580" x2="605" y2="1580" stroke="#999"/>
  <line x1="395" y1="1600" x2="605" y2="1600" stroke="#999"/>
  <line x1="395" y1="1620" x2="575" y2="1620" stroke="#999"/>
  
  <rect x="650" y="1530" width="250" height="200" fill="#fff8e1" stroke="#666"/>
  <text x="775" y="1560" text-anchor="middle" font-size="12" font-weight="bold">Teses e Dissertações</text>
  <line x1="670" y1="1580" x2="880" y2="1580" stroke="#999"/>
  <line x1="670" y1="1600" x2="880" y2="1600" stroke="#999"/>
  <line x1="670" y1="1620" x2="850" y2="1620" stroke="#999"/>
  
  <rect x="925" y="1530" width="200" height="200" fill="#fff8e1" stroke="#666"/>
  <text x="1025" y="1560" text-anchor="middle" font-size="12" font-weight="bold">Bolsas</text>
  <line x1="945" y1="1580" x2="1105" y2="1580" stroke="#999"/>
  <line x1="945" y1="1600" x2="1105" y2="1600" stroke="#999"/>
  <line x1="945" y1="1620" x2="1075" y2="1620" stroke="#999"/>
  
  <!-- CONTACTOS -->
  <rect x="50" y="1780" width="1100" height="500" fill="none" stroke="#333" stroke-width="2"/>
  <text x="70" y="1810" font-size="14" font-weight="bold">CONTACTOS E LOCALIZAÇÃO</text>
  
  <!-- Contact info section -->
  <rect x="80" y="1840" width="480" height="410" fill="#f0f0f0" stroke="#666"/>
  <text x="320" y="1870" text-anchor="middle" font-size="12" font-weight="bold">Informação de Contacto</text>
  
  <text x="100" y="1910" font-size="11" font-weight="bold">Email:</text>
  <line x1="100" y1="1920" x2="520" y2="1920" stroke="#999"/>
  
  <text x="100" y="1950" font-size="11" font-weight="bold">Telefone:</text>
  <line x1="100" y1="1960" x2="520" y2="1960" stroke="#999"/>
  
  <text x="100" y="1990" font-size="11" font-weight="bold">Morada:</text>
  <line x1="100" y1="2000" x2="520" y2="2000" stroke="#999"/>
  <line x1="100" y1="2020" x2="520" y2="2020" stroke="#999"/>
  
  <rect x="100" y="2050" width="440" height="180" fill="#e0e8f0" stroke="#999"/>
  <text x="320" y="2080" text-anchor="middle" font-size="10">Mapa / Ilustração</text>
  <text x="320" y="2100" text-anchor="middle" font-size="10">(Localização nos Açores)</text>
  
  <!-- Contact form section -->
  <rect x="590" y="1840" width="540" height="410" fill="#f9f9f9" stroke="#666"/>
  <text x="860" y="1870" text-anchor="middle" font-size="12" font-weight="bold">Formulário de Contacto</text>
  
  <rect x="620" y="1900" width="480" height="30" fill="white" stroke="#999"/>
  <text x="630" y="1920" font-size="10" fill="#666">Nome</text>
  
  <rect x="620" y="1950" width="480" height="30" fill="white" stroke="#999"/>
  <text x="630" y="1970" font-size="10" fill="#666">Email</text>
  
  <rect x="620" y="2000" width="480" height="30" fill="white" stroke="#999"/>
  <text x="630" y="2020" font-size="10" fill="#666">Assunto</text>
  
  <rect x="620" y="2050" width="480" height="120" fill="white" stroke="#999"/>
  <text x="630" y="2070" font-size="10" fill="#666">Mensagem</text>
  
  <rect x="860" y="2190" width="120" height="35" fill="#4CAF50" stroke="#388E3C"/>
  <text x="920" y="2212" text-anchor="middle" font-size="12" fill="white" font-weight="bold">Enviar</text>
  
  <!-- FOOTER -->
  <rect x="50" y="2300" width="1100" height="180" fill="none" stroke="#333" stroke-width="2"/>
  <text x="70" y="2330" font-size="14" font-weight="bold">RODAPÉ</text>
  
  <rect x="70" y="2350" width="1060" height="110" fill="#f5f5f5" stroke="#999"/>
  
  <text x="100" y="2380" font-size="10">© 2026 Centro Académico Clínico dos Açores</text>
  <text x="100" y="2400" font-size="10">Universidade dos Açores</text>
  
  <text x="1000" y="2380" text-anchor="end" font-size="9">Política de Privacidade</text>
  <text x="1000" y="2400" text-anchor="end" font-size="9">Acessibilidade</text>
  <text x="1000" y="2420" text-anchor="end" font-size="9">Termos de Uso</text>
  
  <!-- Social media icons placeholder -->
  <circle cx="900" cy="2435" r="12" fill="#e0e0e0" stroke="#999"/>
  <circle cx="940" cy="2435" r="12" fill="#e0e0e0" stroke="#999"/>
  <circle cx="980" cy="2435" r="12" fill="#e0e0e0" stroke="#999"/>
  <text x="940" y="2455" text-anchor="middle" font-size="8" fill="#666">Redes Sociais</text>
  
</svg>